<?xml version="1.0" standalone="no"?>
<!DOCTYPE svg PUBLIC "-//W3C//DTD SVG 20010904//EN"
 "http://www.w3.org/TR/2001/REC-SVG-20010904/DTD/svg10.dtd">
<svg version="1.0" xmlns="http://www.w3.org/2000/svg"
 width="802.000000pt" height="1080.000000pt" viewBox="0 0 802.000000 1080.000000"
 preserveAspectRatio="xMidYMid meet">

<g transform="translate(0.000000,1080.000000) scale(0.100000,-0.100000)"
fill="#ffffff" stroke="none">
<path d="M2605 10030 c-1100 -4 -1714 -10 -1740 -17 -98 -24 -235 -112 -320
-204 -41 -44 -92 -121 -120 -181 -8 -18 -26 -53 -40 -77 l-25 -44 0 -4172 0
-4172 21 -49 c11 -27 27 -63 35 -81 8 -17 14 -33 14 -36 0 -23 92 -156 147
-212 69 -70 94 -86 276 -169 l77 -36 1587 0 c1637 0 1602 -1 1603 36 0 6 -53
60 -117 120 -65 60 -207 197 -316 304 -109 107 -214 205 -232 219 l-35 24
-1112 -2 -1113 -1 -40 22 c-28 16 -48 39 -68 77 l-27 55 2 3890 c3 3698 4
3893 21 3923 9 18 32 41 50 50 30 17 142 18 2022 21 1095 2 2008 0 2030 -3 76
-11 69 59 76 -777 5 -741 5 -754 27 -811 42 -115 84 -186 141 -242 69 -68 87
-80 142 -100 24 -9 71 -25 104 -37 59 -22 72 -22 746 -25 644 -4 688 -5 703
-22 14 -16 17 -120 21 -1077 3 -582 6 -1157 5 -1277 l0 -219 29 -27 c15 -14
91 -57 167 -95 233 -115 296 -147 328 -167 17 -10 38 -22 46 -25 8 -4 34 -15
57 -25 51 -23 59 -23 67 -3 10 26 6 3265 -4 3304 -5 19 -15 60 -23 90 -18 71
-69 171 -123 240 -75 96 -1823 1832 -1889 1876 -33 21 -87 52 -120 67 -33 16
-68 33 -79 39 -66 35 -316 37 -3001 28z"/>
<path d="M3147 8092 l-1028 -2 -39 -25 c-54 -34 -113 -97 -138 -149 -18 -36
-22 -61 -22 -149 l0 -106 48 -63 c27 -35 69 -78 94 -96 l46 -32 1156 0 1157 0
57 37 c111 73 159 146 169 256 8 79 -24 159 -95 238 -30 32 -59 59 -65 59 -7
0 -24 6 -39 14 -38 20 -140 21 -1301 18z"/>
<path d="M2175 6741 c-57 -7 -124 -51 -194 -126 -55 -60 -61 -79 -61 -196 0
-89 3 -105 25 -142 33 -56 92 -118 137 -146 l37 -22 1168 3 1168 3 45 21 c63
30 103 76 145 166 41 89 42 99 15 179 -37 108 -87 175 -162 214 -29 16 -64 34
-78 42 -20 10 -225 13 -1110 12 -597 -1 -1108 -5 -1135 -8z"/>
<path d="M2200 5382 c-67 -8 -162 -60 -216 -117 -57 -61 -64 -85 -64 -216 0
-116 1 -125 26 -161 50 -72 157 -143 239 -159 64 -13 3475 -11 3531 1 62 14
148 55 183 88 58 55 66 83 66 242 0 133 -2 148 -22 181 -37 59 -147 125 -223
135 -46 5 -3474 12 -3520 6z"/>
<path d="M6972 4083 c-77 -41 -176 -123 -256 -213 -27 -30 -81 -89 -119 -130
-183 -196 -298 -318 -421 -450 -121 -128 -267 -288 -355 -386 -60 -66 -250
-270 -392 -418 -151 -158 -281 -301 -349 -385 -19 -23 -47 -49 -62 -57 l-28
-14 -397 398 c-411 412 -474 466 -576 496 -101 29 -280 11 -375 -38 -44 -23
-142 -123 -186 -190 -33 -49 -40 -70 -48 -140 -5 -44 -6 -119 -3 -166 13 -159
40 -197 450 -620 72 -74 200 -209 285 -300 257 -273 319 -337 460 -476 159
-156 167 -163 253 -207 125 -66 218 -72 319 -21 55 28 122 78 171 129 70 72
247 263 278 300 19 21 48 53 64 71 109 115 276 295 361 390 212 236 239 266
244 274 4 6 220 236 291 310 8 9 100 113 204 231 103 118 238 268 300 334 62
66 128 138 147 160 20 22 77 87 127 144 187 213 223 265 255 365 24 75 21 197
-8 278 -54 155 -138 248 -290 322 -90 44 -98 46 -183 46 -84 0 -94 -2 -161
-37z"/>
<path d="M7700 2623 c-47 -42 -135 -123 -196 -179 -60 -57 -123 -113 -139
-126 -33 -26 -100 -86 -189 -170 l-61 -57 -5 -358 c-6 -410 -3 -398 -95 -430
-42 -14 -90 -17 -286 -17 l-236 -1 -49 -51 c-197 -207 -345 -373 -451 -504
-33 -42 -68 -82 -77 -89 -9 -7 -16 -19 -16 -25 1 -37 -3 -37 650 -36 677 1
667 0 768 51 20 11 41 19 47 19 33 0 156 80 228 149 121 115 194 232 218 351
6 25 15 65 22 90 8 32 12 241 14 730 1 377 0 695 -2 708 -10 44 -53 28 -145
-55z"/>
</g>
</svg>
